<?xml version="1.0" ?><svg height="52px" version="1.1" viewBox="0 0 52 52" width="52px" xmlns="http://www.w3.org/2000/svg" xmlns:sketch="http://www.bohemiancoding.com/sketch/ns" xmlns:xlink="http://www.w3.org/1999/xlink"><title/><defs><linearGradient id="linearGradient-1" x1="50%" x2="50%" y1="0%" y2="100%"><stop offset="0%" stop-color="#B4F561"/><stop offset="100%" stop-color="#48A10C"/></linearGradient></defs><g fill="none" fill-rule="evenodd" id="black" stroke="none" stroke-width="1"><g fill="#479951" id="color" transform="translate(-490.000000, -70.000000)"><circle cx="516" cy="96" d="M516,122 C530.359404,122 542,110.359404 542,96 C542,81.6405958 530.359404,70 516,70 C501.640596,70 490,81.6405958 490,96 C490,110.359404 501.640596,122 516,122 Z M516,122" id="vine" r="26"/></g><g fill="#FFFFFF" id="Icon" transform="translate(-480.000000, -59.000000)"><path d="M504.272187,97.5885839 C505.315581,98.1665698 506.498674,98.1390923 507.293084,97.4837861 C510.47908,94.8577685 513.778037,90.4351703 514.711477,88.3871386 C516.466064,88.5468914 517.674891,88.1363266 517.674891,88.1363266 L517.663862,84.8990946 C517.663862,84.8990946 515.090802,84.9454229 514.600521,84.952452 C510.868097,85.00549 508.292363,80.6758679 509.809997,77.0178469 C510.861413,74.483847 512.710914,76.3101417 513.040442,77.0977233 C513.36997,77.8853049 513.297782,79.9956402 512.81786,81.543965 C513.402723,82.8488263 516.577689,83.5408757 517.301582,82.4494442 C518.193246,80.0531513 518.582932,75.739824 516.271556,73.5032839 C514.746903,72.028126 510.918896,71.278885 508.117573,72.9594852 C505.315916,74.6400853 505.370725,78.2112007 505.590299,79.9962792 C505.810208,81.7819967 506.414454,85.562708 510.149552,87.6634581 C510.47908,88.0308897 506.055516,93.5244711 505.810208,93.2829248 C500.317181,87.8736929 498.83397,76.215568 498.83397,76.215568 L494,76.1628495 C494,76.1628495 496.636893,93.1247695 504.272187,97.5885839 Z M504.272187,97.5885839" id="vine"/></g></g></svg>